<mxfile host="app.diagrams.net" modified="2023-12-23T08:52:49.537Z" agent="Mozilla/5.0 (Macintosh; Intel Mac OS X 10_15_7) AppleWebKit/537.36 (KHTML, like Gecko) Chrome/120.0.0.0 Safari/537.36" etag="vnr0EGPETgd7O5d3bF8i" version="22.1.11" type="device">
  <diagram name="Page-1" id="I-zfyDoOctxfuoCyCo5i">
    <mxGraphModel dx="1420" dy="1222" grid="0" gridSize="10" guides="1" tooltips="1" connect="1" arrows="1" fold="1" page="1" pageScale="1" pageWidth="850" pageHeight="1100" math="0" shadow="0">
      <root>
        <mxCell id="0" />
        <mxCell id="1" parent="0" />
        <mxCell id="KplFvlBHDwuFrTIBIFc5-83" style="edgeStyle=orthogonalEdgeStyle;rounded=0;orthogonalLoop=1;jettySize=auto;html=1;entryX=0.75;entryY=1;entryDx=0;entryDy=0;exitX=0.964;exitY=0;exitDx=0;exitDy=0;exitPerimeter=0;" edge="1" parent="1" source="KplFvlBHDwuFrTIBIFc5-24" target="KplFvlBHDwuFrTIBIFc5-26">
          <mxGeometry relative="1" as="geometry">
            <mxPoint x="260" y="900" as="sourcePoint" />
          </mxGeometry>
        </mxCell>
        <mxCell id="KplFvlBHDwuFrTIBIFc5-85" value="button [2:0]" style="edgeLabel;html=1;align=center;verticalAlign=middle;resizable=0;points=[];" vertex="1" connectable="0" parent="KplFvlBHDwuFrTIBIFc5-83">
          <mxGeometry x="-0.0362" y="-1" relative="1" as="geometry">
            <mxPoint as="offset" />
          </mxGeometry>
        </mxCell>
        <mxCell id="KplFvlBHDwuFrTIBIFc5-84" style="edgeStyle=orthogonalEdgeStyle;rounded=0;orthogonalLoop=1;jettySize=auto;html=1;exitX=0.925;exitY=0;exitDx=0;exitDy=0;entryX=0.5;entryY=1;entryDx=0;entryDy=0;exitPerimeter=0;" edge="1" parent="1" source="KplFvlBHDwuFrTIBIFc5-24" target="KplFvlBHDwuFrTIBIFc5-26">
          <mxGeometry relative="1" as="geometry" />
        </mxCell>
        <mxCell id="KplFvlBHDwuFrTIBIFc5-86" value="mode [2:0]" style="edgeLabel;html=1;align=center;verticalAlign=middle;resizable=0;points=[];" vertex="1" connectable="0" parent="KplFvlBHDwuFrTIBIFc5-84">
          <mxGeometry x="-0.0935" y="-4" relative="1" as="geometry">
            <mxPoint y="-4" as="offset" />
          </mxGeometry>
        </mxCell>
        <mxCell id="KplFvlBHDwuFrTIBIFc5-87" style="edgeStyle=orthogonalEdgeStyle;rounded=0;orthogonalLoop=1;jettySize=auto;html=1;exitX=0.888;exitY=0.017;exitDx=0;exitDy=0;entryX=0.25;entryY=1;entryDx=0;entryDy=0;exitPerimeter=0;" edge="1" parent="1" source="KplFvlBHDwuFrTIBIFc5-24" target="KplFvlBHDwuFrTIBIFc5-26">
          <mxGeometry relative="1" as="geometry" />
        </mxCell>
        <mxCell id="KplFvlBHDwuFrTIBIFc5-88" value="clk" style="edgeLabel;html=1;align=center;verticalAlign=middle;resizable=0;points=[];" vertex="1" connectable="0" parent="KplFvlBHDwuFrTIBIFc5-87">
          <mxGeometry x="0.0276" y="-1" relative="1" as="geometry">
            <mxPoint x="-7" y="-5" as="offset" />
          </mxGeometry>
        </mxCell>
        <mxCell id="KplFvlBHDwuFrTIBIFc5-24" value="main" style="rounded=1;arcSize=10;whiteSpace=wrap;html=1;align=center;direction=south;strokeWidth=2;" vertex="1" parent="1">
          <mxGeometry x="133" y="225.5" width="120" height="700" as="geometry" />
        </mxCell>
        <mxCell id="KplFvlBHDwuFrTIBIFc5-90" style="edgeStyle=orthogonalEdgeStyle;rounded=0;orthogonalLoop=1;jettySize=auto;html=1;exitX=0;exitY=0.75;exitDx=0;exitDy=0;entryX=1;entryY=0.75;entryDx=0;entryDy=0;" edge="1" parent="1" source="KplFvlBHDwuFrTIBIFc5-25" target="KplFvlBHDwuFrTIBIFc5-81">
          <mxGeometry relative="1" as="geometry" />
        </mxCell>
        <mxCell id="KplFvlBHDwuFrTIBIFc5-91" value="score" style="edgeLabel;html=1;align=center;verticalAlign=middle;resizable=0;points=[];" vertex="1" connectable="0" parent="KplFvlBHDwuFrTIBIFc5-90">
          <mxGeometry x="-0.0925" y="-5" relative="1" as="geometry">
            <mxPoint x="-3" y="2" as="offset" />
          </mxGeometry>
        </mxCell>
        <mxCell id="KplFvlBHDwuFrTIBIFc5-127" style="edgeStyle=orthogonalEdgeStyle;rounded=0;orthogonalLoop=1;jettySize=auto;html=1;entryX=0.5;entryY=1;entryDx=0;entryDy=0;" edge="1" parent="1" target="KplFvlBHDwuFrTIBIFc5-77">
          <mxGeometry relative="1" as="geometry">
            <mxPoint x="432" y="710" as="sourcePoint" />
            <mxPoint x="553" y="890" as="targetPoint" />
            <Array as="points">
              <mxPoint x="460" y="710" />
              <mxPoint x="460" y="830" />
            </Array>
          </mxGeometry>
        </mxCell>
        <mxCell id="KplFvlBHDwuFrTIBIFc5-128" value="p [39:0]" style="edgeLabel;html=1;align=center;verticalAlign=middle;resizable=0;points=[];" vertex="1" connectable="0" parent="KplFvlBHDwuFrTIBIFc5-127">
          <mxGeometry x="-0.3003" y="1" relative="1" as="geometry">
            <mxPoint y="10" as="offset" />
          </mxGeometry>
        </mxCell>
        <mxCell id="KplFvlBHDwuFrTIBIFc5-159" style="edgeStyle=orthogonalEdgeStyle;rounded=0;orthogonalLoop=1;jettySize=auto;html=1;exitX=0.088;exitY=0.022;exitDx=0;exitDy=0;entryX=0.25;entryY=1;entryDx=0;entryDy=0;exitPerimeter=0;" edge="1" parent="1">
          <mxGeometry relative="1" as="geometry">
            <mxPoint x="430" y="271.5160000000001" as="sourcePoint" />
            <mxPoint x="554.98" y="225.5" as="targetPoint" />
            <Array as="points">
              <mxPoint x="430" y="265.5" />
              <mxPoint x="460" y="265.5" />
              <mxPoint x="460" y="225.5" />
            </Array>
          </mxGeometry>
        </mxCell>
        <mxCell id="KplFvlBHDwuFrTIBIFc5-160" value="song_num [1:0]" style="edgeLabel;html=1;align=center;verticalAlign=middle;resizable=0;points=[];" vertex="1" connectable="0" parent="KplFvlBHDwuFrTIBIFc5-159">
          <mxGeometry x="-0.3452" relative="1" as="geometry">
            <mxPoint x="40" y="-20" as="offset" />
          </mxGeometry>
        </mxCell>
        <mxCell id="KplFvlBHDwuFrTIBIFc5-163" style="edgeStyle=orthogonalEdgeStyle;rounded=0;orthogonalLoop=1;jettySize=auto;html=1;exitX=0.25;exitY=0;exitDx=0;exitDy=0;" edge="1" parent="1" source="KplFvlBHDwuFrTIBIFc5-25" target="KplFvlBHDwuFrTIBIFc5-80">
          <mxGeometry relative="1" as="geometry">
            <Array as="points">
              <mxPoint x="430" y="300" />
              <mxPoint x="500" y="300" />
              <mxPoint x="500" y="260" />
            </Array>
          </mxGeometry>
        </mxCell>
        <mxCell id="KplFvlBHDwuFrTIBIFc5-164" value="mode [2:0]" style="edgeLabel;html=1;align=center;verticalAlign=middle;resizable=0;points=[];" vertex="1" connectable="0" parent="KplFvlBHDwuFrTIBIFc5-163">
          <mxGeometry x="-0.0827" y="-1" relative="1" as="geometry">
            <mxPoint x="-10" y="-1" as="offset" />
          </mxGeometry>
        </mxCell>
        <mxCell id="KplFvlBHDwuFrTIBIFc5-182" style="edgeStyle=orthogonalEdgeStyle;rounded=0;orthogonalLoop=1;jettySize=auto;html=1;exitX=0.312;exitY=0;exitDx=0;exitDy=0;exitPerimeter=0;" edge="1" parent="1" source="KplFvlBHDwuFrTIBIFc5-25">
          <mxGeometry relative="1" as="geometry">
            <mxPoint x="550" y="360" as="targetPoint" />
            <Array as="points">
              <mxPoint x="450" y="380" />
              <mxPoint x="450" y="361" />
            </Array>
          </mxGeometry>
        </mxCell>
        <mxCell id="KplFvlBHDwuFrTIBIFc5-188" value="clk" style="edgeLabel;html=1;align=center;verticalAlign=middle;resizable=0;points=[];" vertex="1" connectable="0" parent="KplFvlBHDwuFrTIBIFc5-182">
          <mxGeometry x="-0.0521" y="-1" relative="1" as="geometry">
            <mxPoint as="offset" />
          </mxGeometry>
        </mxCell>
        <mxCell id="KplFvlBHDwuFrTIBIFc5-184" style="edgeStyle=orthogonalEdgeStyle;rounded=0;orthogonalLoop=1;jettySize=auto;html=1;exitX=0.391;exitY=0;exitDx=0;exitDy=0;entryX=0.5;entryY=1;entryDx=0;entryDy=0;exitPerimeter=0;" edge="1" parent="1" source="KplFvlBHDwuFrTIBIFc5-25" target="KplFvlBHDwuFrTIBIFc5-79">
          <mxGeometry relative="1" as="geometry" />
        </mxCell>
        <mxCell id="KplFvlBHDwuFrTIBIFc5-190" value="mode [2:0]" style="edgeLabel;html=1;align=center;verticalAlign=middle;resizable=0;points=[];" vertex="1" connectable="0" parent="KplFvlBHDwuFrTIBIFc5-184">
          <mxGeometry x="0.4358" y="2" relative="1" as="geometry">
            <mxPoint as="offset" />
          </mxGeometry>
        </mxCell>
        <mxCell id="KplFvlBHDwuFrTIBIFc5-185" style="edgeStyle=orthogonalEdgeStyle;rounded=0;orthogonalLoop=1;jettySize=auto;html=1;" edge="1" parent="1">
          <mxGeometry relative="1" as="geometry">
            <mxPoint x="550" y="420" as="targetPoint" />
            <mxPoint x="430" y="439" as="sourcePoint" />
            <Array as="points">
              <mxPoint x="508" y="439" />
              <mxPoint x="508" y="421" />
            </Array>
          </mxGeometry>
        </mxCell>
        <mxCell id="KplFvlBHDwuFrTIBIFc5-191" value="pitch [1:0]" style="edgeLabel;html=1;align=center;verticalAlign=middle;resizable=0;points=[];" vertex="1" connectable="0" parent="KplFvlBHDwuFrTIBIFc5-185">
          <mxGeometry x="-0.3769" y="5" relative="1" as="geometry">
            <mxPoint as="offset" />
          </mxGeometry>
        </mxCell>
        <mxCell id="KplFvlBHDwuFrTIBIFc5-200" style="edgeStyle=orthogonalEdgeStyle;rounded=0;orthogonalLoop=1;jettySize=auto;html=1;exitX=0.575;exitY=0.022;exitDx=0;exitDy=0;exitPerimeter=0;" edge="1" parent="1" source="KplFvlBHDwuFrTIBIFc5-25">
          <mxGeometry relative="1" as="geometry">
            <mxPoint x="550" y="510" as="targetPoint" />
          </mxGeometry>
        </mxCell>
        <mxCell id="KplFvlBHDwuFrTIBIFc5-202" value="key [6:0]" style="edgeLabel;html=1;align=center;verticalAlign=middle;resizable=0;points=[];" vertex="1" connectable="0" parent="KplFvlBHDwuFrTIBIFc5-200">
          <mxGeometry x="-0.283" y="1" relative="1" as="geometry">
            <mxPoint as="offset" />
          </mxGeometry>
        </mxCell>
        <mxCell id="KplFvlBHDwuFrTIBIFc5-203" style="edgeStyle=orthogonalEdgeStyle;rounded=0;orthogonalLoop=1;jettySize=auto;html=1;exitX=0.62;exitY=0;exitDx=0;exitDy=0;exitPerimeter=0;" edge="1" parent="1" source="KplFvlBHDwuFrTIBIFc5-25">
          <mxGeometry relative="1" as="geometry">
            <mxPoint x="550" y="530" as="targetPoint" />
          </mxGeometry>
        </mxCell>
        <mxCell id="KplFvlBHDwuFrTIBIFc5-205" value="pitch [1:0]" style="edgeLabel;html=1;align=center;verticalAlign=middle;resizable=0;points=[];" vertex="1" connectable="0" parent="KplFvlBHDwuFrTIBIFc5-203">
          <mxGeometry x="-0.0132" y="-2" relative="1" as="geometry">
            <mxPoint x="-1" y="-2" as="offset" />
          </mxGeometry>
        </mxCell>
        <mxCell id="KplFvlBHDwuFrTIBIFc5-207" style="edgeStyle=orthogonalEdgeStyle;rounded=0;orthogonalLoop=1;jettySize=auto;html=1;exitX=0.658;exitY=-0.044;exitDx=0;exitDy=0;exitPerimeter=0;" edge="1" parent="1" source="KplFvlBHDwuFrTIBIFc5-25">
          <mxGeometry relative="1" as="geometry">
            <mxPoint x="550" y="550" as="targetPoint" />
          </mxGeometry>
        </mxCell>
        <mxCell id="KplFvlBHDwuFrTIBIFc5-208" value="song_num [1:0]" style="edgeLabel;html=1;align=center;verticalAlign=middle;resizable=0;points=[];" vertex="1" connectable="0" parent="KplFvlBHDwuFrTIBIFc5-207">
          <mxGeometry x="-0.2782" y="-2" relative="1" as="geometry">
            <mxPoint x="14" y="-3" as="offset" />
          </mxGeometry>
        </mxCell>
        <mxCell id="KplFvlBHDwuFrTIBIFc5-25" value="main&lt;br&gt;controller" style="rounded=1;arcSize=10;whiteSpace=wrap;html=1;align=center;direction=south;strokeWidth=2;" vertex="1" parent="1">
          <mxGeometry x="340" y="225.5" width="90" height="494.5" as="geometry" />
        </mxCell>
        <mxCell id="KplFvlBHDwuFrTIBIFc5-27" style="edgeStyle=orthogonalEdgeStyle;rounded=0;orthogonalLoop=1;jettySize=auto;html=1;exitX=0;exitY=0.75;exitDx=0;exitDy=0;entryX=1;entryY=0.75;entryDx=0;entryDy=0;" edge="1" parent="1" source="KplFvlBHDwuFrTIBIFc5-26" target="KplFvlBHDwuFrTIBIFc5-25">
          <mxGeometry relative="1" as="geometry" />
        </mxCell>
        <mxCell id="KplFvlBHDwuFrTIBIFc5-28" value="song_num&lt;br&gt;[1:0]" style="edgeLabel;html=1;align=center;verticalAlign=middle;resizable=0;points=[];" vertex="1" connectable="0" parent="KplFvlBHDwuFrTIBIFc5-27">
          <mxGeometry x="-0.0667" relative="1" as="geometry">
            <mxPoint x="1" as="offset" />
          </mxGeometry>
        </mxCell>
        <mxCell id="KplFvlBHDwuFrTIBIFc5-29" style="edgeStyle=orthogonalEdgeStyle;rounded=0;orthogonalLoop=1;jettySize=auto;html=1;exitX=0;exitY=0.25;exitDx=0;exitDy=0;entryX=1;entryY=0.25;entryDx=0;entryDy=0;" edge="1" parent="1" source="KplFvlBHDwuFrTIBIFc5-26" target="KplFvlBHDwuFrTIBIFc5-25">
          <mxGeometry relative="1" as="geometry" />
        </mxCell>
        <mxCell id="KplFvlBHDwuFrTIBIFc5-30" value="pause" style="edgeLabel;html=1;align=center;verticalAlign=middle;resizable=0;points=[];" vertex="1" connectable="0" parent="KplFvlBHDwuFrTIBIFc5-29">
          <mxGeometry x="-0.0667" y="-1" relative="1" as="geometry">
            <mxPoint x="1" as="offset" />
          </mxGeometry>
        </mxCell>
        <mxCell id="KplFvlBHDwuFrTIBIFc5-26" value="button&lt;br&gt;controller" style="rounded=1;arcSize=10;whiteSpace=wrap;html=1;align=center;direction=south;strokeWidth=2;" vertex="1" parent="1">
          <mxGeometry x="340" y="820" width="90" height="105.5" as="geometry" />
        </mxCell>
        <mxCell id="KplFvlBHDwuFrTIBIFc5-31" value="" style="endArrow=none;html=1;rounded=0;strokeWidth=2;fontStyle=1" edge="1" parent="1">
          <mxGeometry relative="1" as="geometry">
            <mxPoint x="63" y="425.5" as="sourcePoint" />
            <mxPoint x="133" y="425" as="targetPoint" />
          </mxGeometry>
        </mxCell>
        <mxCell id="KplFvlBHDwuFrTIBIFc5-32" value="" style="endArrow=none;html=1;rounded=0;strokeWidth=2;fontStyle=1" edge="1" parent="1">
          <mxGeometry relative="1" as="geometry">
            <mxPoint x="63" y="455.5" as="sourcePoint" />
            <mxPoint x="133" y="455" as="targetPoint" />
          </mxGeometry>
        </mxCell>
        <mxCell id="KplFvlBHDwuFrTIBIFc5-33" value="clk" style="text;html=1;align=center;verticalAlign=middle;resizable=0;points=[];autosize=1;strokeColor=none;fillColor=none;fontStyle=1" vertex="1" parent="1">
          <mxGeometry x="78" y="395" width="40" height="30" as="geometry" />
        </mxCell>
        <mxCell id="KplFvlBHDwuFrTIBIFc5-34" value="rst_n" style="text;html=1;align=center;verticalAlign=middle;resizable=0;points=[];autosize=1;strokeColor=none;fillColor=none;fontStyle=1" vertex="1" parent="1">
          <mxGeometry x="73" y="425" width="50" height="30" as="geometry" />
        </mxCell>
        <mxCell id="KplFvlBHDwuFrTIBIFc5-35" value="" style="endArrow=none;html=1;rounded=0;strokeWidth=2;fontStyle=1" edge="1" parent="1">
          <mxGeometry relative="1" as="geometry">
            <mxPoint x="63" y="485.5" as="sourcePoint" />
            <mxPoint x="133" y="485" as="targetPoint" />
          </mxGeometry>
        </mxCell>
        <mxCell id="KplFvlBHDwuFrTIBIFc5-37" value="button [2:0]" style="text;html=1;align=center;verticalAlign=middle;resizable=0;points=[];autosize=1;strokeColor=none;fillColor=none;fontStyle=1" vertex="1" parent="1">
          <mxGeometry x="53" y="455" width="90" height="30" as="geometry" />
        </mxCell>
        <mxCell id="KplFvlBHDwuFrTIBIFc5-56" value="" style="endArrow=none;html=1;rounded=0;strokeWidth=2;fontStyle=1" edge="1" parent="1">
          <mxGeometry relative="1" as="geometry">
            <mxPoint x="63" y="515.5" as="sourcePoint" />
            <mxPoint x="133" y="515" as="targetPoint" />
          </mxGeometry>
        </mxCell>
        <mxCell id="KplFvlBHDwuFrTIBIFc5-57" value="" style="endArrow=none;html=1;rounded=0;strokeWidth=2;fontStyle=1" edge="1" parent="1">
          <mxGeometry relative="1" as="geometry">
            <mxPoint x="63" y="545.5" as="sourcePoint" />
            <mxPoint x="133" y="545" as="targetPoint" />
          </mxGeometry>
        </mxCell>
        <mxCell id="KplFvlBHDwuFrTIBIFc5-58" value="key [6:0]" style="text;html=1;align=center;verticalAlign=middle;resizable=0;points=[];autosize=1;strokeColor=none;fillColor=none;fontStyle=1" vertex="1" parent="1">
          <mxGeometry x="63" y="485" width="70" height="30" as="geometry" />
        </mxCell>
        <mxCell id="KplFvlBHDwuFrTIBIFc5-59" value="mode [2:0]" style="text;html=1;align=center;verticalAlign=middle;resizable=0;points=[];autosize=1;strokeColor=none;fillColor=none;fontStyle=1" vertex="1" parent="1">
          <mxGeometry x="58" y="515" width="80" height="30" as="geometry" />
        </mxCell>
        <mxCell id="KplFvlBHDwuFrTIBIFc5-60" value="" style="endArrow=none;html=1;rounded=0;strokeWidth=2;fontStyle=1" edge="1" parent="1">
          <mxGeometry relative="1" as="geometry">
            <mxPoint x="63" y="575.5" as="sourcePoint" />
            <mxPoint x="133" y="575" as="targetPoint" />
          </mxGeometry>
        </mxCell>
        <mxCell id="KplFvlBHDwuFrTIBIFc5-61" value="pitch [1:0]" style="text;html=1;align=center;verticalAlign=middle;resizable=0;points=[];autosize=1;strokeColor=none;fillColor=none;fontStyle=1" vertex="1" parent="1">
          <mxGeometry x="58" y="545" width="80" height="30" as="geometry" />
        </mxCell>
        <mxCell id="KplFvlBHDwuFrTIBIFc5-62" value="" style="endArrow=none;html=1;rounded=0;strokeWidth=2;fontStyle=1" edge="1" parent="1">
          <mxGeometry relative="1" as="geometry">
            <mxPoint x="63" y="605.5" as="sourcePoint" />
            <mxPoint x="133" y="605" as="targetPoint" />
          </mxGeometry>
        </mxCell>
        <mxCell id="KplFvlBHDwuFrTIBIFc5-63" value="" style="endArrow=none;html=1;rounded=0;strokeWidth=2;fontStyle=1" edge="1" parent="1">
          <mxGeometry relative="1" as="geometry">
            <mxPoint x="63" y="635.5" as="sourcePoint" />
            <mxPoint x="133" y="635" as="targetPoint" />
          </mxGeometry>
        </mxCell>
        <mxCell id="KplFvlBHDwuFrTIBIFc5-64" value="user [1:0]" style="text;html=1;align=center;verticalAlign=middle;resizable=0;points=[];autosize=1;strokeColor=none;fillColor=none;fontStyle=1" vertex="1" parent="1">
          <mxGeometry x="58" y="575" width="80" height="30" as="geometry" />
        </mxCell>
        <mxCell id="KplFvlBHDwuFrTIBIFc5-65" value="seg_en [7:0]" style="text;html=1;align=center;verticalAlign=middle;resizable=0;points=[];autosize=1;strokeColor=none;fillColor=none;fontStyle=1" vertex="1" parent="1">
          <mxGeometry x="43" y="605" width="90" height="30" as="geometry" />
        </mxCell>
        <mxCell id="KplFvlBHDwuFrTIBIFc5-66" value="" style="endArrow=none;html=1;rounded=0;strokeWidth=2;fontStyle=1" edge="1" parent="1">
          <mxGeometry relative="1" as="geometry">
            <mxPoint x="63" y="665.5" as="sourcePoint" />
            <mxPoint x="133" y="665" as="targetPoint" />
          </mxGeometry>
        </mxCell>
        <mxCell id="KplFvlBHDwuFrTIBIFc5-67" value="seg_out0 [7:0]" style="text;html=1;align=center;verticalAlign=middle;resizable=0;points=[];autosize=1;strokeColor=none;fillColor=none;fontStyle=1" vertex="1" parent="1">
          <mxGeometry x="38" y="635" width="100" height="30" as="geometry" />
        </mxCell>
        <mxCell id="KplFvlBHDwuFrTIBIFc5-68" value="" style="endArrow=none;html=1;rounded=0;strokeWidth=2;fontStyle=1" edge="1" parent="1">
          <mxGeometry relative="1" as="geometry">
            <mxPoint x="63" y="695.5" as="sourcePoint" />
            <mxPoint x="133" y="695" as="targetPoint" />
          </mxGeometry>
        </mxCell>
        <mxCell id="KplFvlBHDwuFrTIBIFc5-69" value="" style="endArrow=none;html=1;rounded=0;strokeWidth=2;fontStyle=1" edge="1" parent="1">
          <mxGeometry relative="1" as="geometry">
            <mxPoint x="63" y="725.5" as="sourcePoint" />
            <mxPoint x="133" y="725" as="targetPoint" />
          </mxGeometry>
        </mxCell>
        <mxCell id="KplFvlBHDwuFrTIBIFc5-70" value="seg_out1 [7:0]" style="text;html=1;align=center;verticalAlign=middle;resizable=0;points=[];autosize=1;strokeColor=none;fillColor=none;fontStyle=1" vertex="1" parent="1">
          <mxGeometry x="38" y="665" width="100" height="30" as="geometry" />
        </mxCell>
        <mxCell id="KplFvlBHDwuFrTIBIFc5-71" value="led [7:0]" style="text;html=1;align=center;verticalAlign=middle;resizable=0;points=[];autosize=1;strokeColor=none;fillColor=none;fontStyle=1" vertex="1" parent="1">
          <mxGeometry x="63" y="695" width="70" height="30" as="geometry" />
        </mxCell>
        <mxCell id="KplFvlBHDwuFrTIBIFc5-72" value="" style="endArrow=none;html=1;rounded=0;strokeWidth=2;fontStyle=1" edge="1" parent="1">
          <mxGeometry relative="1" as="geometry">
            <mxPoint x="63" y="755.5" as="sourcePoint" />
            <mxPoint x="133" y="755" as="targetPoint" />
          </mxGeometry>
        </mxCell>
        <mxCell id="KplFvlBHDwuFrTIBIFc5-73" value="speaker" style="text;html=1;align=center;verticalAlign=middle;resizable=0;points=[];autosize=1;strokeColor=none;fillColor=none;fontStyle=1" vertex="1" parent="1">
          <mxGeometry x="63" y="725" width="70" height="30" as="geometry" />
        </mxCell>
        <mxCell id="KplFvlBHDwuFrTIBIFc5-154" style="edgeStyle=orthogonalEdgeStyle;rounded=0;orthogonalLoop=1;jettySize=auto;html=1;exitX=0.75;exitY=1;exitDx=0;exitDy=0;" edge="1" parent="1" source="KplFvlBHDwuFrTIBIFc5-76">
          <mxGeometry relative="1" as="geometry">
            <mxPoint x="430" y="630" as="targetPoint" />
          </mxGeometry>
        </mxCell>
        <mxCell id="KplFvlBHDwuFrTIBIFc5-193" value="pwm" style="edgeLabel;html=1;align=center;verticalAlign=middle;resizable=0;points=[];" vertex="1" connectable="0" parent="KplFvlBHDwuFrTIBIFc5-154">
          <mxGeometry x="-0.0284" y="1" relative="1" as="geometry">
            <mxPoint x="-13" y="-1" as="offset" />
          </mxGeometry>
        </mxCell>
        <mxCell id="KplFvlBHDwuFrTIBIFc5-76" value="learning" style="rounded=1;arcSize=10;whiteSpace=wrap;html=1;align=center;direction=south;strokeWidth=2;" vertex="1" parent="1">
          <mxGeometry x="553" y="480" width="90" height="200" as="geometry" />
        </mxCell>
        <mxCell id="KplFvlBHDwuFrTIBIFc5-77" value="seg_display" style="rounded=1;arcSize=10;whiteSpace=wrap;html=1;align=center;direction=south;strokeWidth=2;" vertex="1" parent="1">
          <mxGeometry x="553" y="730" width="90" height="200" as="geometry" />
        </mxCell>
        <mxCell id="KplFvlBHDwuFrTIBIFc5-132" style="edgeStyle=orthogonalEdgeStyle;rounded=0;orthogonalLoop=1;jettySize=auto;html=1;entryX=0.5;entryY=0;entryDx=0;entryDy=0;exitX=0.5;exitY=1;exitDx=0;exitDy=0;" edge="1" parent="1" source="KplFvlBHDwuFrTIBIFc5-78" target="KplFvlBHDwuFrTIBIFc5-77">
          <mxGeometry relative="1" as="geometry">
            <mxPoint x="710" y="880" as="sourcePoint" />
          </mxGeometry>
        </mxCell>
        <mxCell id="KplFvlBHDwuFrTIBIFc5-135" value="seg_out1" style="edgeLabel;html=1;align=center;verticalAlign=middle;resizable=0;points=[];" vertex="1" connectable="0" parent="KplFvlBHDwuFrTIBIFc5-132">
          <mxGeometry x="-0.1485" relative="1" as="geometry">
            <mxPoint x="-9" as="offset" />
          </mxGeometry>
        </mxCell>
        <mxCell id="KplFvlBHDwuFrTIBIFc5-78" value="light7_seg" style="rounded=1;arcSize=10;whiteSpace=wrap;html=1;align=center;direction=south;strokeWidth=2;" vertex="1" parent="1">
          <mxGeometry x="723" y="750" width="90" height="160" as="geometry" />
        </mxCell>
        <mxCell id="KplFvlBHDwuFrTIBIFc5-79" value="keyboard" style="rounded=1;arcSize=10;whiteSpace=wrap;html=1;align=center;direction=south;strokeWidth=2;" vertex="1" parent="1">
          <mxGeometry x="553" y="340" width="90" height="120" as="geometry" />
        </mxCell>
        <mxCell id="KplFvlBHDwuFrTIBIFc5-80" value="auto_player" style="rounded=1;arcSize=10;whiteSpace=wrap;html=1;align=center;direction=south;strokeWidth=2;" vertex="1" parent="1">
          <mxGeometry x="553" y="190" width="90" height="132" as="geometry" />
        </mxCell>
        <mxCell id="KplFvlBHDwuFrTIBIFc5-94" style="edgeStyle=orthogonalEdgeStyle;rounded=0;orthogonalLoop=1;jettySize=auto;html=1;exitX=1;exitY=0.5;exitDx=0;exitDy=0;entryX=0;entryY=0.25;entryDx=0;entryDy=0;" edge="1" parent="1" source="KplFvlBHDwuFrTIBIFc5-81" target="KplFvlBHDwuFrTIBIFc5-25">
          <mxGeometry relative="1" as="geometry" />
        </mxCell>
        <mxCell id="KplFvlBHDwuFrTIBIFc5-95" value="user_dis" style="edgeLabel;html=1;align=center;verticalAlign=middle;resizable=0;points=[];" vertex="1" connectable="0" parent="KplFvlBHDwuFrTIBIFc5-94">
          <mxGeometry x="-0.0581" y="1" relative="1" as="geometry">
            <mxPoint as="offset" />
          </mxGeometry>
        </mxCell>
        <mxCell id="KplFvlBHDwuFrTIBIFc5-81" value="score2level" style="rounded=1;arcSize=10;whiteSpace=wrap;html=1;align=center;direction=south;strokeWidth=2;" vertex="1" parent="1">
          <mxGeometry x="290" y="100" width="180" height="60" as="geometry" />
        </mxCell>
        <mxCell id="KplFvlBHDwuFrTIBIFc5-178" style="edgeStyle=orthogonalEdgeStyle;rounded=0;orthogonalLoop=1;jettySize=auto;html=1;entryX=0.75;entryY=0;entryDx=0;entryDy=0;" edge="1" parent="1" target="KplFvlBHDwuFrTIBIFc5-79">
          <mxGeometry relative="1" as="geometry">
            <mxPoint x="720" y="430" as="sourcePoint" />
          </mxGeometry>
        </mxCell>
        <mxCell id="KplFvlBHDwuFrTIBIFc5-179" value="pwm" style="edgeLabel;html=1;align=center;verticalAlign=middle;resizable=0;points=[];" vertex="1" connectable="0" parent="KplFvlBHDwuFrTIBIFc5-178">
          <mxGeometry x="-0.0714" y="-1" relative="1" as="geometry">
            <mxPoint as="offset" />
          </mxGeometry>
        </mxCell>
        <mxCell id="KplFvlBHDwuFrTIBIFc5-82" value="buzzer" style="rounded=1;arcSize=10;whiteSpace=wrap;html=1;align=center;direction=south;strokeWidth=2;" vertex="1" parent="1">
          <mxGeometry x="723" y="190" width="90" height="440" as="geometry" />
        </mxCell>
        <mxCell id="KplFvlBHDwuFrTIBIFc5-98" style="edgeStyle=orthogonalEdgeStyle;rounded=0;orthogonalLoop=1;jettySize=auto;html=1;entryX=0.168;entryY=1;entryDx=0;entryDy=0;entryPerimeter=0;exitX=0.553;exitY=-0.011;exitDx=0;exitDy=0;exitPerimeter=0;" edge="1" parent="1" source="KplFvlBHDwuFrTIBIFc5-80" target="KplFvlBHDwuFrTIBIFc5-82">
          <mxGeometry relative="1" as="geometry">
            <mxPoint x="650" y="242" as="sourcePoint" />
          </mxGeometry>
        </mxCell>
        <mxCell id="KplFvlBHDwuFrTIBIFc5-101" value="note [4:0]" style="edgeLabel;html=1;align=center;verticalAlign=middle;resizable=0;points=[];" vertex="1" connectable="0" parent="KplFvlBHDwuFrTIBIFc5-98">
          <mxGeometry x="0.0955" y="1" relative="1" as="geometry">
            <mxPoint x="-7" as="offset" />
          </mxGeometry>
        </mxCell>
        <mxCell id="KplFvlBHDwuFrTIBIFc5-99" style="edgeStyle=orthogonalEdgeStyle;rounded=0;orthogonalLoop=1;jettySize=auto;html=1;entryX=0.098;entryY=1.011;entryDx=0;entryDy=0;entryPerimeter=0;exitX=0.333;exitY=0.011;exitDx=0;exitDy=0;exitPerimeter=0;" edge="1" parent="1" source="KplFvlBHDwuFrTIBIFc5-80" target="KplFvlBHDwuFrTIBIFc5-82">
          <mxGeometry relative="1" as="geometry">
            <mxPoint x="650" y="210" as="sourcePoint" />
          </mxGeometry>
        </mxCell>
        <mxCell id="KplFvlBHDwuFrTIBIFc5-100" value="clk" style="edgeLabel;html=1;align=center;verticalAlign=middle;resizable=0;points=[];" vertex="1" connectable="0" parent="KplFvlBHDwuFrTIBIFc5-99">
          <mxGeometry x="0.0967" y="-1" relative="1" as="geometry">
            <mxPoint x="-7" as="offset" />
          </mxGeometry>
        </mxCell>
        <mxCell id="KplFvlBHDwuFrTIBIFc5-103" style="edgeStyle=orthogonalEdgeStyle;rounded=0;orthogonalLoop=1;jettySize=auto;html=1;exitX=0.225;exitY=1.011;exitDx=0;exitDy=0;exitPerimeter=0;entryX=0.75;entryY=0;entryDx=0;entryDy=0;" edge="1" parent="1" source="KplFvlBHDwuFrTIBIFc5-82" target="KplFvlBHDwuFrTIBIFc5-80">
          <mxGeometry relative="1" as="geometry">
            <mxPoint x="643" y="277" as="targetPoint" />
          </mxGeometry>
        </mxCell>
        <mxCell id="KplFvlBHDwuFrTIBIFc5-104" value="pwm" style="edgeLabel;html=1;align=center;verticalAlign=middle;resizable=0;points=[];" vertex="1" connectable="0" parent="KplFvlBHDwuFrTIBIFc5-103">
          <mxGeometry x="-0.0668" y="3" relative="1" as="geometry">
            <mxPoint y="-4" as="offset" />
          </mxGeometry>
        </mxCell>
        <mxCell id="KplFvlBHDwuFrTIBIFc5-125" style="edgeStyle=orthogonalEdgeStyle;rounded=0;orthogonalLoop=1;jettySize=auto;html=1;entryX=0.927;entryY=-0.011;entryDx=0;entryDy=0;entryPerimeter=0;" edge="1" parent="1" target="KplFvlBHDwuFrTIBIFc5-25">
          <mxGeometry relative="1" as="geometry">
            <mxPoint x="553" y="840" as="sourcePoint" />
            <Array as="points">
              <mxPoint x="553" y="800" />
              <mxPoint x="490" y="800" />
              <mxPoint x="490" y="684" />
            </Array>
          </mxGeometry>
        </mxCell>
        <mxCell id="KplFvlBHDwuFrTIBIFc5-129" value="seg_en [7:0]" style="edgeLabel;html=1;align=center;verticalAlign=middle;resizable=0;points=[];" vertex="1" connectable="0" parent="KplFvlBHDwuFrTIBIFc5-125">
          <mxGeometry x="0.0652" y="-2" relative="1" as="geometry">
            <mxPoint x="-2" y="-15" as="offset" />
          </mxGeometry>
        </mxCell>
        <mxCell id="KplFvlBHDwuFrTIBIFc5-126" style="edgeStyle=orthogonalEdgeStyle;rounded=0;orthogonalLoop=1;jettySize=auto;html=1;" edge="1" parent="1">
          <mxGeometry relative="1" as="geometry">
            <mxPoint x="553" y="770" as="sourcePoint" />
            <mxPoint x="430" y="660" as="targetPoint" />
            <Array as="points">
              <mxPoint x="553" y="770" />
              <mxPoint x="520" y="770" />
              <mxPoint x="520" y="660" />
            </Array>
          </mxGeometry>
        </mxCell>
        <mxCell id="KplFvlBHDwuFrTIBIFc5-130" value="seg_out [7:0]" style="edgeLabel;html=1;align=center;verticalAlign=middle;resizable=0;points=[];" vertex="1" connectable="0" parent="KplFvlBHDwuFrTIBIFc5-126">
          <mxGeometry x="-0.1892" y="1" relative="1" as="geometry">
            <mxPoint y="1" as="offset" />
          </mxGeometry>
        </mxCell>
        <mxCell id="KplFvlBHDwuFrTIBIFc5-131" value="p [39:0]" style="edgeStyle=orthogonalEdgeStyle;rounded=0;orthogonalLoop=1;jettySize=auto;html=1;" edge="1" parent="1">
          <mxGeometry relative="1" as="geometry">
            <mxPoint x="640" y="860" as="sourcePoint" />
            <mxPoint x="720" y="860" as="targetPoint" />
            <Array as="points">
              <mxPoint x="644" y="860" />
              <mxPoint x="720" y="860" />
            </Array>
            <mxPoint as="offset" />
          </mxGeometry>
        </mxCell>
        <mxCell id="KplFvlBHDwuFrTIBIFc5-133" style="edgeStyle=orthogonalEdgeStyle;rounded=0;orthogonalLoop=1;jettySize=auto;html=1;entryX=0.37;entryY=-0.022;entryDx=0;entryDy=0;entryPerimeter=0;exitX=0.333;exitY=1.011;exitDx=0;exitDy=0;exitPerimeter=0;" edge="1" parent="1" source="KplFvlBHDwuFrTIBIFc5-78" target="KplFvlBHDwuFrTIBIFc5-77">
          <mxGeometry relative="1" as="geometry">
            <mxPoint x="720" y="910" as="sourcePoint" />
          </mxGeometry>
        </mxCell>
        <mxCell id="KplFvlBHDwuFrTIBIFc5-134" value="seg_out0" style="edgeLabel;html=1;align=center;verticalAlign=middle;resizable=0;points=[];" vertex="1" connectable="0" parent="KplFvlBHDwuFrTIBIFc5-133">
          <mxGeometry x="-0.0512" y="2" relative="1" as="geometry">
            <mxPoint y="-5" as="offset" />
          </mxGeometry>
        </mxCell>
        <mxCell id="KplFvlBHDwuFrTIBIFc5-136" style="edgeStyle=orthogonalEdgeStyle;rounded=0;orthogonalLoop=1;jettySize=auto;html=1;exitX=0.039;exitY=0;exitDx=0;exitDy=0;entryX=0.058;entryY=1.022;entryDx=0;entryDy=0;entryPerimeter=0;exitPerimeter=0;" edge="1" parent="1" source="KplFvlBHDwuFrTIBIFc5-24" target="KplFvlBHDwuFrTIBIFc5-25">
          <mxGeometry relative="1" as="geometry" />
        </mxCell>
        <mxCell id="KplFvlBHDwuFrTIBIFc5-137" value="clk" style="edgeLabel;html=1;align=center;verticalAlign=middle;resizable=0;points=[];" vertex="1" connectable="0" parent="KplFvlBHDwuFrTIBIFc5-136">
          <mxGeometry x="-0.0974" y="-2" relative="1" as="geometry">
            <mxPoint as="offset" />
          </mxGeometry>
        </mxCell>
        <mxCell id="KplFvlBHDwuFrTIBIFc5-138" style="edgeStyle=orthogonalEdgeStyle;rounded=0;orthogonalLoop=1;jettySize=auto;html=1;exitX=0.075;exitY=0;exitDx=0;exitDy=0;entryX=0.106;entryY=1.011;entryDx=0;entryDy=0;entryPerimeter=0;exitPerimeter=0;" edge="1" parent="1" source="KplFvlBHDwuFrTIBIFc5-24" target="KplFvlBHDwuFrTIBIFc5-25">
          <mxGeometry relative="1" as="geometry" />
        </mxCell>
        <mxCell id="KplFvlBHDwuFrTIBIFc5-141" value="key [6:0]" style="edgeLabel;html=1;align=center;verticalAlign=middle;resizable=0;points=[];" vertex="1" connectable="0" parent="KplFvlBHDwuFrTIBIFc5-138">
          <mxGeometry x="-0.0245" relative="1" as="geometry">
            <mxPoint as="offset" />
          </mxGeometry>
        </mxCell>
        <mxCell id="KplFvlBHDwuFrTIBIFc5-139" style="edgeStyle=orthogonalEdgeStyle;rounded=0;orthogonalLoop=1;jettySize=auto;html=1;exitX=0.108;exitY=-0.008;exitDx=0;exitDy=0;entryX=0.155;entryY=1.022;entryDx=0;entryDy=0;entryPerimeter=0;exitPerimeter=0;" edge="1" parent="1" source="KplFvlBHDwuFrTIBIFc5-24" target="KplFvlBHDwuFrTIBIFc5-25">
          <mxGeometry relative="1" as="geometry" />
        </mxCell>
        <mxCell id="KplFvlBHDwuFrTIBIFc5-140" value="pitch [1:0]" style="edgeLabel;html=1;align=center;verticalAlign=middle;resizable=0;points=[];" vertex="1" connectable="0" parent="KplFvlBHDwuFrTIBIFc5-139">
          <mxGeometry x="-0.0821" y="-4" relative="1" as="geometry">
            <mxPoint x="-3" as="offset" />
          </mxGeometry>
        </mxCell>
        <mxCell id="KplFvlBHDwuFrTIBIFc5-142" style="edgeStyle=orthogonalEdgeStyle;rounded=0;orthogonalLoop=1;jettySize=auto;html=1;exitX=0.155;exitY=0.017;exitDx=0;exitDy=0;entryX=0.217;entryY=1;entryDx=0;entryDy=0;entryPerimeter=0;exitPerimeter=0;" edge="1" parent="1" source="KplFvlBHDwuFrTIBIFc5-24" target="KplFvlBHDwuFrTIBIFc5-25">
          <mxGeometry relative="1" as="geometry" />
        </mxCell>
        <mxCell id="KplFvlBHDwuFrTIBIFc5-143" value="user [1:0]" style="edgeLabel;html=1;align=center;verticalAlign=middle;resizable=0;points=[];" vertex="1" connectable="0" parent="KplFvlBHDwuFrTIBIFc5-142">
          <mxGeometry x="-0.0904" y="2" relative="1" as="geometry">
            <mxPoint as="offset" />
          </mxGeometry>
        </mxCell>
        <mxCell id="KplFvlBHDwuFrTIBIFc5-146" style="edgeStyle=orthogonalEdgeStyle;rounded=0;orthogonalLoop=1;jettySize=auto;html=1;exitX=0.321;exitY=1;exitDx=0;exitDy=0;entryX=0.228;entryY=0;entryDx=0;entryDy=0;entryPerimeter=0;exitPerimeter=0;" edge="1" parent="1" source="KplFvlBHDwuFrTIBIFc5-25" target="KplFvlBHDwuFrTIBIFc5-24">
          <mxGeometry relative="1" as="geometry" />
        </mxCell>
        <mxCell id="KplFvlBHDwuFrTIBIFc5-148" value="led [7:0]" style="edgeLabel;html=1;align=center;verticalAlign=middle;resizable=0;points=[];" vertex="1" connectable="0" parent="KplFvlBHDwuFrTIBIFc5-146">
          <mxGeometry x="0.2036" y="-1" relative="1" as="geometry">
            <mxPoint x="2" as="offset" />
          </mxGeometry>
        </mxCell>
        <mxCell id="KplFvlBHDwuFrTIBIFc5-147" style="edgeStyle=orthogonalEdgeStyle;rounded=0;orthogonalLoop=1;jettySize=auto;html=1;exitX=0.395;exitY=1;exitDx=0;exitDy=0;entryX=0.279;entryY=-0.008;entryDx=0;entryDy=0;entryPerimeter=0;exitPerimeter=0;" edge="1" parent="1" source="KplFvlBHDwuFrTIBIFc5-25" target="KplFvlBHDwuFrTIBIFc5-24">
          <mxGeometry relative="1" as="geometry" />
        </mxCell>
        <mxCell id="KplFvlBHDwuFrTIBIFc5-150" value="seg_en [7:0]]" style="edgeLabel;html=1;align=center;verticalAlign=middle;resizable=0;points=[];" vertex="1" connectable="0" parent="KplFvlBHDwuFrTIBIFc5-147">
          <mxGeometry x="0.0228" y="2" relative="1" as="geometry">
            <mxPoint x="4" y="-3" as="offset" />
          </mxGeometry>
        </mxCell>
        <mxCell id="KplFvlBHDwuFrTIBIFc5-149" style="edgeStyle=orthogonalEdgeStyle;rounded=0;orthogonalLoop=1;jettySize=auto;html=1;exitX=0.464;exitY=1;exitDx=0;exitDy=0;entryX=0.328;entryY=0;entryDx=0;entryDy=0;entryPerimeter=0;exitPerimeter=0;" edge="1" parent="1" source="KplFvlBHDwuFrTIBIFc5-25" target="KplFvlBHDwuFrTIBIFc5-24">
          <mxGeometry relative="1" as="geometry" />
        </mxCell>
        <mxCell id="KplFvlBHDwuFrTIBIFc5-151" value="seg_out0 [7:0]" style="edgeLabel;html=1;align=center;verticalAlign=middle;resizable=0;points=[];" vertex="1" connectable="0" parent="KplFvlBHDwuFrTIBIFc5-149">
          <mxGeometry x="0.2431" y="-3" relative="1" as="geometry">
            <mxPoint x="14" y="3" as="offset" />
          </mxGeometry>
        </mxCell>
        <mxCell id="KplFvlBHDwuFrTIBIFc5-152" style="edgeStyle=orthogonalEdgeStyle;rounded=0;orthogonalLoop=1;jettySize=auto;html=1;exitX=0.539;exitY=1;exitDx=0;exitDy=0;entryX=0.381;entryY=0.008;entryDx=0;entryDy=0;entryPerimeter=0;exitPerimeter=0;" edge="1" parent="1" source="KplFvlBHDwuFrTIBIFc5-25" target="KplFvlBHDwuFrTIBIFc5-24">
          <mxGeometry relative="1" as="geometry" />
        </mxCell>
        <mxCell id="KplFvlBHDwuFrTIBIFc5-153" value="pwm" style="edgeLabel;html=1;align=center;verticalAlign=middle;resizable=0;points=[];" vertex="1" connectable="0" parent="KplFvlBHDwuFrTIBIFc5-152">
          <mxGeometry x="-0.1606" y="-1" relative="1" as="geometry">
            <mxPoint x="-13" as="offset" />
          </mxGeometry>
        </mxCell>
        <mxCell id="KplFvlBHDwuFrTIBIFc5-155" style="edgeStyle=orthogonalEdgeStyle;rounded=0;orthogonalLoop=1;jettySize=auto;html=1;entryX=0.78;entryY=-0.011;entryDx=0;entryDy=0;entryPerimeter=0;" edge="1" parent="1">
          <mxGeometry relative="1" as="geometry">
            <mxPoint x="553" y="611" as="sourcePoint" />
            <mxPoint x="428.99" y="611.21" as="targetPoint" />
            <Array as="points">
              <mxPoint x="553" y="610" />
              <mxPoint x="490" y="610" />
              <mxPoint x="490" y="611" />
            </Array>
          </mxGeometry>
        </mxCell>
        <mxCell id="KplFvlBHDwuFrTIBIFc5-192" value="led [7:0]" style="edgeLabel;html=1;align=center;verticalAlign=middle;resizable=0;points=[];" vertex="1" connectable="0" parent="KplFvlBHDwuFrTIBIFc5-155">
          <mxGeometry x="0.0359" y="1" relative="1" as="geometry">
            <mxPoint as="offset" />
          </mxGeometry>
        </mxCell>
        <mxCell id="KplFvlBHDwuFrTIBIFc5-157" style="edgeStyle=orthogonalEdgeStyle;rounded=0;orthogonalLoop=1;jettySize=auto;html=1;entryX=0.114;entryY=1;entryDx=0;entryDy=0;entryPerimeter=0;" edge="1" parent="1" target="KplFvlBHDwuFrTIBIFc5-80">
          <mxGeometry relative="1" as="geometry">
            <mxPoint x="430" y="243" as="sourcePoint" />
            <Array as="points">
              <mxPoint x="440" y="243" />
              <mxPoint x="440" y="205" />
            </Array>
          </mxGeometry>
        </mxCell>
        <mxCell id="KplFvlBHDwuFrTIBIFc5-158" value="clk" style="edgeLabel;html=1;align=center;verticalAlign=middle;resizable=0;points=[];" vertex="1" connectable="0" parent="KplFvlBHDwuFrTIBIFc5-157">
          <mxGeometry x="-0.0011" y="1" relative="1" as="geometry">
            <mxPoint x="1" as="offset" />
          </mxGeometry>
        </mxCell>
        <mxCell id="KplFvlBHDwuFrTIBIFc5-161" style="edgeStyle=orthogonalEdgeStyle;rounded=0;orthogonalLoop=1;jettySize=auto;html=1;exitX=0.128;exitY=0.011;exitDx=0;exitDy=0;entryX=0.409;entryY=1;entryDx=0;entryDy=0;entryPerimeter=0;exitPerimeter=0;" edge="1" parent="1" source="KplFvlBHDwuFrTIBIFc5-25" target="KplFvlBHDwuFrTIBIFc5-80">
          <mxGeometry relative="1" as="geometry">
            <Array as="points">
              <mxPoint x="429" y="280" />
              <mxPoint x="480" y="280" />
              <mxPoint x="480" y="244" />
            </Array>
          </mxGeometry>
        </mxCell>
        <mxCell id="KplFvlBHDwuFrTIBIFc5-162" value="pause" style="edgeLabel;html=1;align=center;verticalAlign=middle;resizable=0;points=[];" vertex="1" connectable="0" parent="KplFvlBHDwuFrTIBIFc5-161">
          <mxGeometry x="-0.4135" relative="1" as="geometry">
            <mxPoint x="41" y="-40" as="offset" />
          </mxGeometry>
        </mxCell>
        <mxCell id="KplFvlBHDwuFrTIBIFc5-165" style="edgeStyle=orthogonalEdgeStyle;rounded=0;orthogonalLoop=1;jettySize=auto;html=1;exitX=0.644;exitY=1.011;exitDx=0;exitDy=0;entryX=0.195;entryY=-0.011;entryDx=0;entryDy=0;entryPerimeter=0;exitPerimeter=0;" edge="1" parent="1" source="KplFvlBHDwuFrTIBIFc5-80" target="KplFvlBHDwuFrTIBIFc5-25">
          <mxGeometry relative="1" as="geometry">
            <Array as="points">
              <mxPoint x="552" y="280" />
              <mxPoint x="520" y="280" />
              <mxPoint x="520" y="322" />
            </Array>
          </mxGeometry>
        </mxCell>
        <mxCell id="KplFvlBHDwuFrTIBIFc5-167" value="led [7:0]" style="edgeLabel;html=1;align=center;verticalAlign=middle;resizable=0;points=[];" vertex="1" connectable="0" parent="KplFvlBHDwuFrTIBIFc5-165">
          <mxGeometry x="0.4043" y="-1" relative="1" as="geometry">
            <mxPoint as="offset" />
          </mxGeometry>
        </mxCell>
        <mxCell id="KplFvlBHDwuFrTIBIFc5-166" style="edgeStyle=orthogonalEdgeStyle;rounded=0;orthogonalLoop=1;jettySize=auto;html=1;exitX=0.75;exitY=1;exitDx=0;exitDy=0;entryX=0.232;entryY=-0.033;entryDx=0;entryDy=0;entryPerimeter=0;" edge="1" parent="1" source="KplFvlBHDwuFrTIBIFc5-80" target="KplFvlBHDwuFrTIBIFc5-25">
          <mxGeometry relative="1" as="geometry">
            <Array as="points">
              <mxPoint x="553" y="300" />
              <mxPoint x="540" y="300" />
              <mxPoint x="540" y="340" />
            </Array>
          </mxGeometry>
        </mxCell>
        <mxCell id="KplFvlBHDwuFrTIBIFc5-168" value="pwm" style="edgeLabel;html=1;align=center;verticalAlign=middle;resizable=0;points=[];" vertex="1" connectable="0" parent="KplFvlBHDwuFrTIBIFc5-166">
          <mxGeometry x="0.3689" y="-1" relative="1" as="geometry">
            <mxPoint as="offset" />
          </mxGeometry>
        </mxCell>
        <mxCell id="KplFvlBHDwuFrTIBIFc5-174" style="edgeStyle=orthogonalEdgeStyle;rounded=0;orthogonalLoop=1;jettySize=auto;html=1;exitX=0.25;exitY=0;exitDx=0;exitDy=0;entryX=0.409;entryY=1.011;entryDx=0;entryDy=0;entryPerimeter=0;" edge="1" parent="1" source="KplFvlBHDwuFrTIBIFc5-79" target="KplFvlBHDwuFrTIBIFc5-82">
          <mxGeometry relative="1" as="geometry" />
        </mxCell>
        <mxCell id="KplFvlBHDwuFrTIBIFc5-180" value="clk" style="edgeLabel;html=1;align=center;verticalAlign=middle;resizable=0;points=[];" vertex="1" connectable="0" parent="KplFvlBHDwuFrTIBIFc5-174">
          <mxGeometry x="-0.3924" y="4" relative="1" as="geometry">
            <mxPoint x="13" y="4" as="offset" />
          </mxGeometry>
        </mxCell>
        <mxCell id="KplFvlBHDwuFrTIBIFc5-176" style="edgeStyle=orthogonalEdgeStyle;rounded=0;orthogonalLoop=1;jettySize=auto;html=1;exitX=0.5;exitY=0;exitDx=0;exitDy=0;entryX=0.477;entryY=1.033;entryDx=0;entryDy=0;entryPerimeter=0;" edge="1" parent="1" source="KplFvlBHDwuFrTIBIFc5-79" target="KplFvlBHDwuFrTIBIFc5-82">
          <mxGeometry relative="1" as="geometry">
            <Array as="points">
              <mxPoint x="682" y="400" />
              <mxPoint x="682" y="400" />
            </Array>
          </mxGeometry>
        </mxCell>
        <mxCell id="KplFvlBHDwuFrTIBIFc5-181" value="note [4:0]" style="edgeLabel;html=1;align=center;verticalAlign=middle;resizable=0;points=[];" vertex="1" connectable="0" parent="KplFvlBHDwuFrTIBIFc5-176">
          <mxGeometry x="-0.1172" y="2" relative="1" as="geometry">
            <mxPoint as="offset" />
          </mxGeometry>
        </mxCell>
        <mxCell id="KplFvlBHDwuFrTIBIFc5-183" style="edgeStyle=orthogonalEdgeStyle;rounded=0;orthogonalLoop=1;jettySize=auto;html=1;entryX=0.35;entryY=1.011;entryDx=0;entryDy=0;entryPerimeter=0;" edge="1" parent="1" target="KplFvlBHDwuFrTIBIFc5-79">
          <mxGeometry relative="1" as="geometry">
            <mxPoint x="430" y="400" as="sourcePoint" />
            <Array as="points">
              <mxPoint x="430" y="399" />
              <mxPoint x="470" y="399" />
              <mxPoint x="470" y="382" />
            </Array>
          </mxGeometry>
        </mxCell>
        <mxCell id="KplFvlBHDwuFrTIBIFc5-189" value="key [6:0]" style="edgeLabel;html=1;align=center;verticalAlign=middle;resizable=0;points=[];" vertex="1" connectable="0" parent="KplFvlBHDwuFrTIBIFc5-183">
          <mxGeometry x="0.1713" y="2" relative="1" as="geometry">
            <mxPoint as="offset" />
          </mxGeometry>
        </mxCell>
        <mxCell id="KplFvlBHDwuFrTIBIFc5-186" style="edgeStyle=orthogonalEdgeStyle;rounded=0;orthogonalLoop=1;jettySize=auto;html=1;exitX=0.75;exitY=1;exitDx=0;exitDy=0;entryX=0.466;entryY=-0.011;entryDx=0;entryDy=0;entryPerimeter=0;" edge="1" parent="1" source="KplFvlBHDwuFrTIBIFc5-79" target="KplFvlBHDwuFrTIBIFc5-25">
          <mxGeometry relative="1" as="geometry">
            <Array as="points">
              <mxPoint x="530" y="430" />
              <mxPoint x="530" y="456" />
            </Array>
          </mxGeometry>
        </mxCell>
        <mxCell id="KplFvlBHDwuFrTIBIFc5-187" value="pwm" style="edgeLabel;html=1;align=center;verticalAlign=middle;resizable=0;points=[];" vertex="1" connectable="0" parent="KplFvlBHDwuFrTIBIFc5-186">
          <mxGeometry x="0.1074" y="-1" relative="1" as="geometry">
            <mxPoint x="-7" as="offset" />
          </mxGeometry>
        </mxCell>
        <mxCell id="KplFvlBHDwuFrTIBIFc5-194" style="edgeStyle=orthogonalEdgeStyle;rounded=0;orthogonalLoop=1;jettySize=auto;html=1;entryX=0.735;entryY=-0.011;entryDx=0;entryDy=0;entryPerimeter=0;" edge="1" parent="1" target="KplFvlBHDwuFrTIBIFc5-25">
          <mxGeometry relative="1" as="geometry">
            <mxPoint x="550" y="590" as="sourcePoint" />
            <Array as="points">
              <mxPoint x="550" y="591" />
              <mxPoint x="490" y="591" />
              <mxPoint x="490" y="590" />
            </Array>
          </mxGeometry>
        </mxCell>
        <mxCell id="KplFvlBHDwuFrTIBIFc5-198" value="score [40:0]" style="edgeLabel;html=1;align=center;verticalAlign=middle;resizable=0;points=[];" vertex="1" connectable="0" parent="KplFvlBHDwuFrTIBIFc5-194">
          <mxGeometry x="-0.0415" y="3" relative="1" as="geometry">
            <mxPoint y="-4" as="offset" />
          </mxGeometry>
        </mxCell>
        <mxCell id="KplFvlBHDwuFrTIBIFc5-195" style="edgeStyle=orthogonalEdgeStyle;rounded=0;orthogonalLoop=1;jettySize=auto;html=1;exitX=0.5;exitY=1;exitDx=0;exitDy=0;entryX=0.699;entryY=-0.022;entryDx=0;entryDy=0;entryPerimeter=0;" edge="1" parent="1" source="KplFvlBHDwuFrTIBIFc5-76" target="KplFvlBHDwuFrTIBIFc5-25">
          <mxGeometry relative="1" as="geometry">
            <Array as="points">
              <mxPoint x="553" y="571" />
            </Array>
          </mxGeometry>
        </mxCell>
        <mxCell id="KplFvlBHDwuFrTIBIFc5-206" value="pitch_dis [4:0]" style="edgeLabel;html=1;align=center;verticalAlign=middle;resizable=0;points=[];" vertex="1" connectable="0" parent="KplFvlBHDwuFrTIBIFc5-195">
          <mxGeometry x="0.291" y="-1" relative="1" as="geometry">
            <mxPoint x="12" as="offset" />
          </mxGeometry>
        </mxCell>
        <mxCell id="KplFvlBHDwuFrTIBIFc5-196" style="edgeStyle=orthogonalEdgeStyle;rounded=0;orthogonalLoop=1;jettySize=auto;html=1;exitX=0.825;exitY=0.978;exitDx=0;exitDy=0;exitPerimeter=0;" edge="1" parent="1" source="KplFvlBHDwuFrTIBIFc5-76">
          <mxGeometry relative="1" as="geometry">
            <mxPoint x="430" y="645" as="targetPoint" />
          </mxGeometry>
        </mxCell>
        <mxCell id="KplFvlBHDwuFrTIBIFc5-197" value="finish" style="edgeLabel;html=1;align=center;verticalAlign=middle;resizable=0;points=[];" vertex="1" connectable="0" parent="KplFvlBHDwuFrTIBIFc5-196">
          <mxGeometry x="-0.0675" y="2" relative="1" as="geometry">
            <mxPoint x="-10" as="offset" />
          </mxGeometry>
        </mxCell>
        <mxCell id="KplFvlBHDwuFrTIBIFc5-199" style="edgeStyle=orthogonalEdgeStyle;rounded=0;orthogonalLoop=1;jettySize=auto;html=1;" edge="1" parent="1">
          <mxGeometry relative="1" as="geometry">
            <mxPoint x="429" y="480" as="sourcePoint" />
            <mxPoint x="550" y="490" as="targetPoint" />
            <Array as="points">
              <mxPoint x="491" y="480" />
              <mxPoint x="491" y="490" />
            </Array>
          </mxGeometry>
        </mxCell>
        <mxCell id="KplFvlBHDwuFrTIBIFc5-201" value="clk" style="edgeLabel;html=1;align=center;verticalAlign=middle;resizable=0;points=[];" vertex="1" connectable="0" parent="KplFvlBHDwuFrTIBIFc5-199">
          <mxGeometry x="-0.5633" y="-2" relative="1" as="geometry">
            <mxPoint as="offset" />
          </mxGeometry>
        </mxCell>
        <mxCell id="KplFvlBHDwuFrTIBIFc5-209" style="edgeStyle=orthogonalEdgeStyle;rounded=0;orthogonalLoop=1;jettySize=auto;html=1;exitX=0.25;exitY=0;exitDx=0;exitDy=0;entryX=0.773;entryY=1.011;entryDx=0;entryDy=0;entryPerimeter=0;" edge="1" parent="1" source="KplFvlBHDwuFrTIBIFc5-76" target="KplFvlBHDwuFrTIBIFc5-82">
          <mxGeometry relative="1" as="geometry" />
        </mxCell>
        <mxCell id="KplFvlBHDwuFrTIBIFc5-213" value="clk" style="edgeLabel;html=1;align=center;verticalAlign=middle;resizable=0;points=[];" vertex="1" connectable="0" parent="KplFvlBHDwuFrTIBIFc5-209">
          <mxGeometry x="0.0138" y="-2" relative="1" as="geometry">
            <mxPoint as="offset" />
          </mxGeometry>
        </mxCell>
        <mxCell id="KplFvlBHDwuFrTIBIFc5-211" style="edgeStyle=orthogonalEdgeStyle;rounded=0;orthogonalLoop=1;jettySize=auto;html=1;exitX=0.4;exitY=-0.011;exitDx=0;exitDy=0;entryX=0.839;entryY=1;entryDx=0;entryDy=0;entryPerimeter=0;exitPerimeter=0;" edge="1" parent="1" source="KplFvlBHDwuFrTIBIFc5-76" target="KplFvlBHDwuFrTIBIFc5-82">
          <mxGeometry relative="1" as="geometry" />
        </mxCell>
        <mxCell id="KplFvlBHDwuFrTIBIFc5-214" value="note [4:0]" style="edgeLabel;html=1;align=center;verticalAlign=middle;resizable=0;points=[];" vertex="1" connectable="0" parent="KplFvlBHDwuFrTIBIFc5-211">
          <mxGeometry x="-0.3231" y="4" relative="1" as="geometry">
            <mxPoint x="9" y="4" as="offset" />
          </mxGeometry>
        </mxCell>
        <mxCell id="KplFvlBHDwuFrTIBIFc5-215" style="edgeStyle=orthogonalEdgeStyle;rounded=0;orthogonalLoop=1;jettySize=auto;html=1;exitX=0.909;exitY=1;exitDx=0;exitDy=0;entryX=0.545;entryY=0.011;entryDx=0;entryDy=0;entryPerimeter=0;exitPerimeter=0;" edge="1" parent="1" source="KplFvlBHDwuFrTIBIFc5-82" target="KplFvlBHDwuFrTIBIFc5-76">
          <mxGeometry relative="1" as="geometry" />
        </mxCell>
        <mxCell id="KplFvlBHDwuFrTIBIFc5-216" value="pwm" style="edgeLabel;html=1;align=center;verticalAlign=middle;resizable=0;points=[];" vertex="1" connectable="0" parent="KplFvlBHDwuFrTIBIFc5-215">
          <mxGeometry x="-0.0486" y="2" relative="1" as="geometry">
            <mxPoint y="-2" as="offset" />
          </mxGeometry>
        </mxCell>
      </root>
    </mxGraphModel>
  </diagram>
</mxfile>
